<?xml version="1.0" encoding="utf-8"?>
<!-- Generator: Adobe Illustrator 25.4.0, SVG Export Plug-In . SVG Version: 6.00 Build 0)  -->
<svg version="1.1" id="Layer_1" xmlns="http://www.w3.org/2000/svg" xmlns:xlink="http://www.w3.org/1999/xlink" x="0px" y="0px"
	 viewBox="0 0 200.3 52.4" style="enable-background:new 0 0 200.3 52.4;" xml:space="preserve">
<style type="text/css">
	.st0{fill:#040404;}
	.st1{fill:#222222;}
	.st2{fill:#212121;}
	.st3{fill:#DB0415;}
	.st4{fill:#D63F3F;}
	.st5{fill:#D64040;}
	.st6{fill:#DC0213;}
</style>
<path class="st0" d="M34.4,17.4c0.2,0,0.4-0.1,0.6-0.1c1.4-0.6,2.9-1,4.3-1.4c0.5-0.1,0.9-0.1,1.4-0.1c0.4,0,0.5,0.3,0.3,0.7
	c-0.1,0.1-0.2,0.3-0.4,0.4c-1.7,1.3-3.6,2.4-5.5,3.3c-2.8,1.4-6,2.1-9.2,1.9c-1.8-0.1-3.6-0.5-5.2-1.2c-1.1-0.4-2.3-0.9-3.4-1.4
	c-0.9-0.3-1.8-0.8-2.7-1.1c-1.4-0.5-3-1-4.6-1.1c-1.2-0.1-2.3-0.1-3.5-0.1C5.2,17.4,4,17.6,2.7,18l-1.6,0.5
	c-0.4,0.1-0.8-0.2-0.8-0.8c0-0.1,0.1-0.2,0.1-0.3c0.5-0.7,1-1.4,1.5-2.1c0.3-0.3,0.5-0.6,0.8-0.9c0.5-0.7,1.1-1.4,1.8-2.1
	c1-1,2-1.9,3.1-2.8c0.8-0.7,1.8-1.2,2.7-1.7c1.7-0.9,3.7-1.2,5.6-1c0.8,0.1,1.5,0.3,2.3,0.5c1.3,0.4,2.5,0.8,3.8,1.4
	c1,0.5,2.1,0.9,3.3,1c0.6,0.1,1.2,0.1,1.9,0c0.3,0,0.6-0.1,0.8,0.2c0.2,0.3,0,0.7-0.2,1c-0.5,0.8-1.2,1.3-2.2,1.4
	c-0.9,0.1-1.7,0.1-2.6-0.1c-1.4-0.4-2.9-0.6-4.4-0.5c-0.3,0-0.6,0.1-0.9,0.2c-0.3,0.1-0.3,0.3-0.2,0.7c0.1,0.1,0.1,0.3,0.3,0.4
	c0.6,0.7,1.3,1.2,2.1,1.7c0.6,0.3,1.2,0.8,1.8,1.2c0.2,0.2,0.5,0.3,0.8,0.2c0.1,0.1,0.1,0.3,0.2,0.4c0.4,0.2,0.8,0.4,1.2,0.6
	c0.1,0.1,0.3,0.1,0.5,0.1c0.3,0.3,0.7,0.5,1.1,0.5c0.1,0.1,0.1,0.2,0.1,0.2c0.2,0.1,0.4,0.1,0.6,0.2l1.7,0.6h1
	C29,18.9,29,19,29.1,19c0.8-0.1,1.5,0,2.3-0.1c0.8-0.1,1.4-0.3,2.1-0.8c0.1-0.1,0.3-0.1,0.4-0.1c0.3,0.1,0.3-0.2,0.5-0.3L34.4,17.4
	L34.4,17.4z"/>
<path class="st1" d="M27.8,18.9L26,18.2c-0.2-0.1-0.4-0.1-0.6-0.2c-0.1,0-0.1-0.1-0.1-0.2c1-0.8,2.1-1.5,3-2.3
	c0.5-0.4,1.2-0.8,1.8-1.2c0.5-0.3,1-0.5,1.6-0.5c0.3,0,0.5,0,0.8,0.1c0,0.1-0.1,0.3-0.1,0.5c-0.3,0.3-0.6,0.7-1,1
	c-0.2,0.2-0.4,0.4-0.6,0.6c-0.9,1-1.9,1.8-2.9,2.4C27.8,18.6,27.5,18.7,27.8,18.9z"/>
<path class="st2" d="M34.3,17.8c-0.1,0.1-0.2,0.3-0.5,0.3c-0.1,0-0.3,0.1-0.4,0.1c-0.6,0.3-1.3,0.6-2.1,0.8c-0.8,0.1-1.5,0-2.3,0.1
	c0,0-0.1-0.1-0.1-0.1c1-0.6,2-1.2,2.9-1.9c0.7-0.5,1.4-0.9,2-1.4c0.5-0.3,1.1-0.5,1.7-0.7c0.5-0.1,0.8,0.2,0.5,0.8
	c-0.3,0.8-0.8,1.4-1.4,1.8c-0.1,0.1-0.1,0.1-0.2,0.2l0,0L34.3,17.8z"/>
<path class="st2" d="M24.4,17.4c-0.1,0-0.3-0.1-0.5-0.1c-0.4-0.2-0.8-0.3-1.2-0.6c-0.1-0.1-0.1-0.3-0.2-0.4c0.8-0.5,1.4-1,2.2-1.4
	c0.8-0.5,1.4-1,2.2-1.4c0.3-0.2,0.7-0.3,1-0.4c0.1-0.1,0.3-0.1,0.5,0c0.3,0.1,0.3,0.3,0.2,0.5c-0.1,0.3-0.3,0.6-0.5,0.8
	c-0.7,0.8-1.5,1.5-2.4,2.1C25.3,16.8,24.9,17.1,24.4,17.4z"/>
<path class="st3" d="M46.3,8.9l-1.2-0.6c-0.7-0.4-1.4-0.8-2.1-1L41.9,7c-0.2-0.1-0.5-0.1-0.7-0.1c-0.8-0.1-1.6-0.1-2.4,0
	C38,7,37.2,7.3,36.4,7.8c-0.2,0-0.4,0.1-0.7,0.1c-1.3,0.3-2.6,0.7-3.9,1C31.1,9,30.3,9,29.6,8.9c-0.1-0.2-0.1-0.5,0.1-0.7l0,0
	c0.5-0.3,1-0.8,1.5-1c0.4-0.3,0.9-0.4,1.3-0.6c1.4-0.8,2.9-1.4,4.4-1.8c2.5-0.9,5.2-1.1,7.9-0.8c1.3,0.2,2.6,0.5,3.8,1
	c2.1,0.8,4,1.8,6,2.9c1.9,1,3.9,1.7,6,2.1c2.9,0.5,5.8,0.3,8.6-0.5c0.4-0.1,0.6-0.1,0.8,0.2c0.1,0.3,0.1,0.7-0.2,1
	c-1,1.1-1.9,2.2-2.9,3.2c-1,1-2.1,2.1-3.2,2.9c-0.9,0.7-1.9,1.4-2.9,1.9c-2.1,1.2-4.7,1.6-7.1,1.2c-1.4-0.3-2.7-0.8-4-1.4
	c-1.2-0.6-2.4-1.2-3.7-1.7c-1-0.4-2.1-0.6-3.1-0.5c-0.3,0.1-0.6,0.1-0.8-0.3c-0.1-0.4,0.1-0.7,0.3-1c0.5-0.5,1.1-0.9,1.8-1
	c1-0.2,2.1-0.1,3.2,0.3c1.4,0.5,2.8,0.8,4.3,0.8c0.3,0,0.5,0,0.8-0.1c0.5-0.1,0.5-0.5,0.3-1c-0.1-0.3-0.3-0.5-0.5-0.8
	c-0.6-0.5-1.3-1.2-2-1.6c-0.5-0.4-1.1-0.8-1.6-1.2c-0.1-0.1-0.3-0.1-0.5-0.1c-0.1-0.1-0.1-0.3-0.2-0.3C47.3,9.5,46.8,9.3,46.3,8.9z"
	/>
<path class="st4" d="M42.9,7.3c0.8,0.2,1.5,0.5,2.1,1c-0.7,0.4-1.4,0.9-2.1,1.4l-2.1,1.4c-0.7,0.5-1.5,0.8-2.3,0.9
	c-0.3,0.1-0.5,0-0.8-0.2c0-0.3,0.2-0.4,0.3-0.6c0.8-0.8,1.6-1.6,2.5-2.2c0.7-0.5,1.4-1,2.1-1.4C42.8,7.5,42.9,7.4,42.9,7.3z"/>
<path class="st4" d="M36.4,7.8c0.7-0.5,1.5-0.8,2.4-0.9c0.8-0.1,1.6-0.1,2.4,0c0.2,0,0.5,0.1,0.7,0.1c-1.1,0.5-2.2,1.2-3.2,1.7
	c-0.8,0.4-1.6,1-2.4,1.4c-0.4,0.2-0.9,0.3-1.4,0.4s-0.6-0.2-0.3-0.7c0.3-0.7,0.8-1.2,1.4-1.6C36.1,8.1,36.3,8,36.4,7.8z"/>
<path class="st5" d="M46.3,8.9c0.5,0.3,1,0.6,1.4,1c0.1,0.1,0.1,0.1,0.1,0.3c-0.6,0.3-1.2,0.8-1.9,1.1c-0.6,0.3-1.2,0.6-1.8,1
	c-0.5,0.4-1.2,0.7-1.9,0.8c-0.3,0.1-0.5-0.1-0.7-0.3c0.1-0.4,0.3-0.8,0.6-1c0.5-0.4,1-0.8,1.4-1.1C44.6,10,45.5,9.5,46.3,8.9z"/>
<path d="M7.6,37.9c-1.3,0-2.6-0.1-3.8-0.5c-1.1-0.3-2.1-0.8-3-1.4l1-2.5c0.5,0.4,1.2,0.8,1.8,1s1.2,0.5,1.9,0.6
	c0.8,0.1,1.4,0.2,2.2,0.2c1,0.1,2-0.1,2.8-0.6c0.5-0.4,0.9-1,0.9-1.6c0-0.5-0.2-1-0.6-1.4c-0.6-0.4-1.4-0.7-2.1-0.8l-2.8-0.5
	c-1.3-0.2-2.5-0.8-3.6-1.6C1.4,27.8,1,26.7,1,25.5c0-1,0.3-2.1,0.9-2.9c0.6-0.8,1.4-1.5,2.4-1.9c1.2-0.5,2.4-0.7,3.6-0.7
	c1.2,0,2.3,0.1,3.4,0.5c1,0.3,1.9,0.8,2.6,1.5l-1,2.4c-0.7-0.5-1.5-1-2.3-1.3c-0.9-0.3-1.9-0.4-2.8-0.4c-1-0.1-1.9,0.2-2.7,0.7
	c-0.6,0.4-1,1.1-1,1.9c0,0.5,0.2,1.1,0.6,1.4c0.6,0.5,1.3,0.8,2.1,0.8l2.7,0.5c1.4,0.2,2.6,0.8,3.6,1.6c0.8,0.8,1.2,1.9,1.2,3
	c0,1-0.3,1.9-0.8,2.7c-0.6,0.8-1.4,1.4-2.3,1.9C10.1,37.7,8.8,37.9,7.6,37.9z"/>
<path d="M21.7,37.9c-1.3,0.1-2.5-0.3-3.4-1.2c-0.8-0.8-1.2-2.1-1.2-3.8v-7.6h3.1v7.5c-0.1,0.8,0.1,1.4,0.5,2.1
	c0.5,0.5,1.1,0.7,1.7,0.7c0.8,0,1.6-0.3,2.1-0.9s0.9-1.5,0.8-2.3v-7.1h3.1v12.4h-3V35h0.4c-0.3,0.8-0.9,1.6-1.6,2.1
	C23.5,37.7,22.6,37.9,21.7,37.9z"/>
<path d="M32,42.9V28.3c0-0.5,0-1-0.1-1.6c-0.1-0.5-0.1-1-0.1-1.6h3l0.3,2.6h-0.3c0.3-0.8,0.8-1.6,1.6-2.1c0.8-0.5,1.8-0.8,2.7-0.8
	c1,0,2,0.3,2.9,0.8c0.8,0.5,1.5,1.3,1.9,2.2c0.5,1.1,0.7,2.3,0.7,3.5c0,1.2-0.2,2.4-0.7,3.5c-0.4,0.9-1.1,1.7-1.9,2.3
	c-0.9,0.5-1.9,0.8-2.9,0.8c-1,0-1.9-0.3-2.7-0.8c-0.8-0.5-1.3-1.2-1.6-2.1H35v7.9C35,42.9,32,42.9,32,42.9z M38.2,35.5
	c0.9,0.1,1.8-0.3,2.4-1c0.7-0.9,1-2,0.9-3.1c0.1-1.1-0.2-2.2-0.9-3.1c-1.2-1.3-3.3-1.4-4.6-0.1c-0.1,0.1-0.1,0.1-0.1,0.1
	c-0.7,0.9-1,2-0.9,3.1c-0.1,1.1,0.2,2.2,0.9,3.1C36.4,35.1,37.3,35.5,38.2,35.5z"/>
<path d="M53.3,37.9c-1.8,0.1-3.6-0.5-4.9-1.7c-1.2-1.2-1.9-2.9-1.8-4.7c0-1.2,0.2-2.4,0.8-3.4c0.5-1,1.2-1.7,2.1-2.3
	c1-0.5,2.1-0.8,3.2-0.8c1-0.1,2.1,0.2,3,0.8c0.8,0.5,1.4,1.3,1.9,2.1c0.4,1,0.6,2.1,0.6,3.2v0.8h-9v-1.6h6.9l-0.4,0.3
	c0.1-1-0.2-1.9-0.8-2.6c-0.5-0.6-1.3-1-2.1-0.9c-0.9-0.1-1.8,0.3-2.3,1.1c-0.6,0.9-0.9,2-0.8,3v0.3c-0.1,1.1,0.3,2.2,1,3
	c0.8,0.7,1.8,1.1,2.8,1c0.7,0,1.4-0.1,2-0.3c0.6-0.2,1.2-0.5,1.8-0.9l0.9,2.1c-0.6,0.5-1.4,0.9-2.1,1.1
	C55.1,37.7,54.2,37.9,53.3,37.9z"/>
<path d="M60.7,37.6v-9.3c0-0.5,0-1,0-1.6c0-0.5-0.1-1.1-0.1-1.6h3l0.3,3.4h-0.5c0.1-0.8,0.4-1.4,0.8-2.1c0.3-0.5,0.8-1,1.4-1.2
	c0.5-0.3,1.2-0.4,1.9-0.4c0.2,0,0.5,0,0.7,0s0.3,0.1,0.5,0.1v2.7c-0.3-0.1-0.5-0.2-0.8-0.3c-0.3-0.1-0.5-0.1-0.8-0.1
	c-0.6,0-1.2,0.1-1.8,0.5c-0.5,0.3-0.9,0.8-1.1,1.2c-0.3,0.5-0.3,1.2-0.3,1.8v6.6L60.7,37.6L60.7,37.6z"/>
<path class="st6" d="M70.7,37.6V20.2h3.2v7.3h8.9v-7.3h3.2v17.3h-3.1v-7.5h-8.9v7.5H70.7z"/>
<path class="st6" d="M95.6,37.9c-1.8,0.1-3.6-0.5-4.9-1.7c-1.2-1.2-1.9-2.9-1.8-4.7c0-1.2,0.2-2.4,0.8-3.4c0.5-1,1.2-1.7,2.1-2.3
	c1-0.5,2.1-0.8,3.2-0.8c1-0.1,2.1,0.2,3,0.8c0.8,0.5,1.4,1.3,1.9,2.1c0.4,1,0.6,2.1,0.6,3.2v0.8h-9v-1.6h6.9l-0.4,0.3
	c0.1-1-0.2-1.9-0.8-2.6c-0.5-0.6-1.3-1-2.1-0.9c-0.9-0.1-1.8,0.3-2.3,1.1c-0.6,0.9-0.9,2-0.8,3v0.3c-0.1,1.1,0.3,2.2,1,3
	c0.8,0.7,1.8,1.1,2.8,1c0.7,0,1.4-0.1,2-0.3c0.6-0.2,1.2-0.5,1.8-0.9l0.9,2.1c-0.6,0.5-1.4,0.9-2.1,1.1
	C97.4,37.7,96.5,37.9,95.6,37.9z"/>
<path class="st6" d="M107.9,37.9c-2.1,0.1-4-1.1-4.8-3c-0.5-1.1-0.7-2.3-0.7-3.5c0-1.2,0.2-2.4,0.7-3.5c0.8-1.9,2.7-3.1,4.8-3
	c1,0,1.9,0.3,2.8,0.8c0.8,0.5,1.3,1.2,1.6,2.1H112l0.3-2.6h2.9c-0.1,0.5-0.1,1-0.1,1.6c-0.1,0.5-0.1,1-0.1,1.6v9.4H112V35h0.3
	c-0.3,0.9-0.8,1.6-1.6,2.1C109.8,37.6,108.9,37.9,107.9,37.9z M108.7,35.5c0.9,0,1.8-0.3,2.3-1c0.7-0.9,1-2,0.9-3.1
	c0.1-1.1-0.2-2.2-0.9-3.1c-1.2-1.3-3.2-1.4-4.5-0.1c-0.1,0.1-0.1,0.1-0.1,0.1c-0.7,0.9-1,2-0.9,3.1c-0.1,1.1,0.2,2.2,0.9,3.1
	C107,35.2,107.8,35.5,108.7,35.5L108.7,35.5z"/>
<path class="st6" d="M118.4,37.6V19.4h3.1v18.2H118.4z"/>
<path class="st6" d="M130.2,37.9c-1.2,0.1-2.5-0.3-3.4-1.2c-0.8-1-1.2-2.2-1.1-3.5v-5.8h-2.5v-2.3h2.4V22l3.1-0.8v4h3.4v2.3h-3.4
	v5.6c-0.1,0.6,0.1,1.3,0.5,1.8c0.3,0.3,0.9,0.5,1.4,0.5c0.3,0,0.5,0,0.8-0.1c0.2-0.1,0.4-0.1,0.6-0.2v2.4c-0.3,0.1-0.6,0.2-1,0.3
	C130.8,37.9,130.5,37.9,130.2,37.9z"/>
<path class="st6" d="M134.2,37.6V19.4h3.1v8.2h-0.3c0.3-0.8,1-1.6,1.8-2.1c0.8-0.5,1.8-0.7,2.7-0.7c1.2-0.1,2.5,0.3,3.3,1.2
	c0.8,0.8,1.1,2.1,1.1,3.8v7.6h-3.1V30c0.1-0.8-0.1-1.5-0.5-2.1c-0.5-0.5-1.1-0.8-1.8-0.7c-0.8-0.1-1.6,0.3-2.3,0.9
	c-0.6,0.6-0.9,1.5-0.8,2.3v7.1L134.2,37.6L134.2,37.6z"/>
<path d="M154.8,37.9c-1.2,0-2.3-0.3-3.4-0.8c-1-0.5-1.7-1.3-2.2-2.3c-0.5-1.1-0.8-2.3-0.8-3.5c0-1.2,0.3-2.4,0.8-3.4
	c0.5-1,1.3-1.7,2.2-2.2c1-0.5,2.2-0.8,3.4-0.8c0.8,0,1.6,0.1,2.4,0.4c0.7,0.2,1.4,0.6,1.9,1.1l-1,2.1c-0.4-0.4-1-0.7-1.5-0.9
	c-0.5-0.2-1-0.3-1.6-0.3c-1-0.1-1.9,0.3-2.6,1c-0.7,0.8-1,1.9-1,3c-0.1,1.1,0.3,2.2,1,3c0.7,0.8,1.6,1.1,2.6,1
	c0.5,0,1.1-0.1,1.6-0.3c0.5-0.2,1.1-0.5,1.5-0.9l1,2.1c-0.5,0.5-1.2,0.9-1.9,1.1C156.4,37.7,155.6,37.9,154.8,37.9z"/>
<path d="M166.2,37.9c-1,0-2-0.3-2.9-0.8c-0.8-0.5-1.5-1.3-1.9-2.3c-0.5-1.1-0.8-2.3-0.7-3.5c-0.1-1.2,0.2-2.4,0.7-3.5
	c0.8-1.9,2.7-3.1,4.8-3c1,0,1.9,0.3,2.7,0.8c0.8,0.5,1.3,1.2,1.6,2.1h-0.3l0.3-2.6h2.9c-0.1,0.5-0.1,1-0.1,1.6
	c-0.1,0.5-0.1,1-0.1,1.6v9.4h-3.1V35h0.3c-0.3,0.9-0.8,1.6-1.6,2.1C168.2,37.6,167.2,37.9,166.2,37.9z M167.1,35.5
	c0.9,0,1.8-0.3,2.3-1c0.7-0.9,1-2,0.9-3.1c0.1-1.1-0.2-2.2-0.9-3.1c-1.2-1.3-3.2-1.4-4.5-0.1c-0.1,0.1-0.1,0.1-0.1,0.1
	c-0.7,0.9-1,2-0.9,3.1c-0.1,1.1,0.2,2.2,0.9,3.1C165.3,35.2,166.2,35.5,167.1,35.5z"/>
<path d="M176.7,37.6v-9.3c0-0.5,0-1.1-0.1-1.6c0-0.5-0.1-1.1-0.1-1.6h3l0.3,3.4h-0.5c0.1-0.8,0.4-1.4,0.8-2.1c0.3-0.5,0.8-1,1.4-1.2
	c0.5-0.3,1.2-0.4,1.9-0.4c0.3,0,0.5,0,0.7,0c0.2,0,0.3,0.1,0.5,0.1v2.7c-0.3-0.1-0.5-0.2-0.8-0.3c-0.3-0.1-0.5-0.1-0.8-0.1
	c-0.6,0-1.2,0.1-1.8,0.5c-0.5,0.3-0.9,0.8-1.1,1.2c-0.3,0.5-0.3,1.2-0.3,1.8v6.6L176.7,37.6L176.7,37.6z"/>
<path d="M192.2,37.9c-1.8,0.1-3.6-0.5-4.9-1.7c-1.2-1.2-1.9-2.9-1.8-4.7c0-1.2,0.2-2.3,0.8-3.4c0.5-1,1.2-1.7,2.1-2.3
	c1-0.5,2.1-0.8,3.2-0.8c1-0.1,2.1,0.2,3,0.8c0.8,0.5,1.4,1.3,1.9,2.1c0.4,1,0.6,2.1,0.6,3.2v0.8h-9v-1.6h6.9l-0.4,0.3
	c0.1-1-0.2-1.9-0.8-2.6c-0.5-0.6-1.3-1-2.1-0.9c-0.9-0.1-1.8,0.3-2.3,1.1c-0.6,0.9-0.9,2-0.8,3v0.3c-0.1,1.1,0.3,2.2,1,3
	c0.8,0.7,1.8,1.1,2.8,1c0.7,0,1.4-0.1,2-0.3c0.6-0.2,1.2-0.5,1.8-0.9l0.9,2.1c-0.6,0.5-1.4,0.9-2.1,1.1
	C194,37.7,193.1,37.9,192.2,37.9z"/>
<path d="M34.7,52.3v-6.2c0-0.2,0-0.4,0-0.6l-0.1-0.6h0.8l0.1,1.2h-0.1c0.1-0.4,0.3-0.8,0.7-1s0.8-0.3,1.2-0.3c0.4,0,0.8,0.1,1.2,0.3
	c0.3,0.2,0.6,0.5,0.8,0.9c0.2,0.5,0.3,1,0.3,1.4c0,0.5-0.1,1-0.3,1.4c-0.2,0.4-0.5,0.7-0.8,1c-0.3,0.2-0.8,0.3-1.2,0.3
	c-0.4,0-0.8-0.1-1.2-0.3c-0.3-0.2-0.5-0.5-0.7-1h0.1v3.4L34.7,52.3z M37.1,49.5c0.5,0,0.9-0.1,1.2-0.5c0.3-0.4,0.5-1,0.4-1.5
	c0.1-0.5-0.1-1.1-0.4-1.5c-0.3-0.3-0.8-0.5-1.2-0.5c-0.4,0-0.9,0.1-1.2,0.5c-0.3,0.4-0.5,1-0.4,1.5c-0.1,0.5,0.1,1,0.4,1.5
	C36.2,49.4,36.6,49.6,37.1,49.5z"/>
<path d="M40.8,50.1v-3.9c0-0.2,0-0.4,0-0.6s0-0.4-0.1-0.6h0.8l0.1,1.2h-0.1c0.1-0.3,0.2-0.5,0.3-0.8c0.1-0.2,0.3-0.3,0.6-0.5
	c0.2-0.1,0.5-0.1,0.8-0.1h0.3c0.1,0,0.1,0,0.2,0.1v0.8c-0.1,0-0.2-0.1-0.3-0.1s-0.2,0-0.3,0c-0.3,0-0.5,0.1-0.8,0.2
	c-0.2,0.1-0.4,0.3-0.5,0.5c-0.1,0.2-0.1,0.5-0.1,0.7v3L40.8,50.1z"/>
<path d="M46.6,50.2c-0.5,0-0.9-0.1-1.3-0.3c-0.4-0.2-0.7-0.5-0.9-1s-0.3-1-0.3-1.4c0-0.5,0.1-1,0.3-1.4c0.2-0.4,0.5-0.7,0.8-0.9
	c0.4-0.2,0.8-0.3,1.3-0.3c0.5,0,0.9,0.1,1.3,0.3c0.3,0.2,0.7,0.5,0.8,0.9c0.2,0.5,0.3,1,0.3,1.4c0,0.5-0.1,1-0.3,1.4
	c-0.2,0.4-0.5,0.8-0.9,1C47.5,50.1,47.1,50.3,46.6,50.2z M46.6,49.5c0.5,0,0.9-0.2,1.2-0.5c0.3-0.4,0.5-1,0.4-1.5
	c0.1-0.5-0.1-1.1-0.4-1.5c-0.6-0.6-1.6-0.7-2.3-0.1l-0.1,0.1c-0.3,0.4-0.5,1-0.4,1.5c-0.1,0.5,0.1,1,0.4,1.5
	C45.7,49.4,46.2,49.6,46.6,49.5L46.6,49.5z"/>
<path d="M51.8,50.1L49.6,45h0.9l1.9,4.5h-0.3L54,45h0.9l-2.2,5.1H51.8z"/>
<path d="M55.7,43.8v-1h1v1H55.7z M55.7,50.1V45h0.8v5.1H55.7z"/>
<path d="M60.1,50.2c-0.4,0-0.8-0.1-1.2-0.3c-0.3-0.2-0.6-0.5-0.8-1c-0.2-0.5-0.3-1-0.3-1.4c0-0.5,0.1-1,0.3-1.4
	c0.1-0.3,0.5-0.7,0.8-0.9s0.8-0.3,1.2-0.3c0.4,0,0.8,0.1,1.2,0.3c0.3,0.2,0.5,0.5,0.7,1h-0.1v-3.6h0.8v7.5h-0.8v-1.2H62
	c-0.1,0.4-0.3,0.8-0.7,1C61,50.1,60.6,50.2,60.1,50.2z M60.3,49.5c0.5,0,0.9-0.2,1.2-0.5c0.3-0.4,0.5-1,0.4-1.5
	c0.1-0.5-0.1-1.1-0.4-1.5c-0.3-0.3-0.8-0.5-1.2-0.5c-0.4,0-0.9,0.1-1.2,0.5c-0.3,0.4-0.5,1-0.4,1.5c-0.1,0.5,0.1,1,0.4,1.5
	C59.4,49.4,59.9,49.6,60.3,49.5L60.3,49.5z"/>
<path d="M64.2,43.8v-1h1v1H64.2z M64.4,50.1V45h0.8v5.1H64.4z"/>
<path d="M66.8,50.1v-4c0-0.2,0-0.4,0-0.6l-0.1-0.6h0.8l0.1,1.2h-0.1c0.1-0.3,0.4-0.7,0.8-0.9s0.8-0.3,1.2-0.3c0.5-0.1,1,0.1,1.4,0.5
	c0.3,0.4,0.5,1,0.5,1.5v3.2h-0.8v-3.2c0-0.4-0.1-0.8-0.3-1.1c-0.3-0.2-0.5-0.3-0.9-0.3c-0.4,0-0.8,0.1-1.2,0.4
	c-0.3,0.3-0.5,0.8-0.4,1.2V50L66.8,50.1z"/>
<path d="M75.1,52.4c-0.4,0-0.8-0.1-1.2-0.1c-0.3-0.1-0.7-0.3-1-0.5l0.3-0.6c0.2,0.1,0.4,0.3,0.6,0.3s0.4,0.1,0.6,0.2
	c0.2,0.1,0.5,0.1,0.7,0.1c0.4,0,0.8-0.1,1.2-0.4c0.3-0.3,0.4-0.8,0.4-1.2v-1.5h0.1c-0.1,0.4-0.3,0.8-0.7,1S75.3,50,74.9,50
	c-0.4,0-0.8-0.1-1.2-0.3c-0.3-0.2-0.6-0.5-0.8-0.9c-0.2-0.4-0.3-0.9-0.3-1.4c0-0.5,0.1-1,0.3-1.4c0.2-0.3,0.5-0.7,0.8-0.9
	s0.8-0.3,1.2-0.3c0.4,0,0.8,0.1,1.2,0.3c0.3,0.2,0.6,0.5,0.7,1l-0.1-0.1l0.1-1.1h0.8c0,0.2-0.1,0.4-0.1,0.6s0,0.4,0,0.6V50
	c0.1,1.1-0.6,2.2-1.8,2.3C75.6,52.5,75.3,52.5,75.1,52.4L75.1,52.4z M75,49.3c0.5,0,0.9-0.1,1.2-0.5c0.3-0.4,0.5-0.9,0.4-1.4
	c0-0.5-0.1-1-0.4-1.4c-0.3-0.3-0.8-0.5-1.2-0.5c-0.5,0-0.9,0.1-1.2,0.5c-0.3,0.4-0.5,0.9-0.4,1.4c0,0.5,0.1,1,0.4,1.4
	C74.1,49.2,74.5,49.4,75,49.3z"/>
<path d="M83.7,50.2c-0.4,0-0.8-0.1-1.2-0.3c-0.3-0.2-0.6-0.5-0.8-0.9c-0.2-0.5-0.3-1-0.3-1.4c0-0.5,0.1-1,0.3-1.4
	c0.1-0.3,0.5-0.7,0.8-0.9c0.3-0.2,0.8-0.3,1.2-0.3c0.4,0,0.8,0.1,1.2,0.3c0.3,0.2,0.5,0.5,0.7,1h-0.1l0.1-1.2h0.8
	c0,0.2-0.1,0.4-0.1,0.6c0,0.2,0,0.4,0,0.6v4h-0.8v-1.2h0.1c-0.1,0.4-0.3,0.8-0.7,1C84.5,50.1,84.1,50.3,83.7,50.2z M83.8,49.5
	c0.5,0,0.9-0.1,1.2-0.5c0.3-0.4,0.5-1,0.4-1.5c0.1-0.5-0.1-1.1-0.4-1.5c-0.6-0.6-1.6-0.7-2.3-0.1l-0.1,0.1c-0.3,0.4-0.5,1-0.4,1.5
	c-0.1,0.5,0.1,1,0.4,1.5C83,49.4,83.4,49.6,83.8,49.5L83.8,49.5z"/>
<path class="st6" d="M92.4,50.2c-0.5,0.1-1-0.1-1.4-0.5c-0.3-0.4-0.5-1-0.5-1.5V45h0.8v3.2c0,0.3,0.1,0.8,0.3,1
	c0.2,0.3,0.5,0.3,0.9,0.3c0.4,0,0.8-0.1,1.1-0.4c0.3-0.3,0.4-0.8,0.4-1.2V45h0.8v5.1h-0.8V49h0.1c-0.1,0.3-0.3,0.7-0.7,0.9
	C93.2,50.1,92.8,50.3,92.4,50.2z"/>
<path class="st6" d="M96.5,50.1v-4c0-0.2,0-0.4,0-0.6l-0.1-0.6h0.8l0.1,1.2h-0.1c0.1-0.3,0.3-0.7,0.7-0.9s0.8-0.3,1.2-0.3
	c0.5-0.1,1,0.1,1.4,0.5c0.3,0.4,0.5,1,0.5,1.5v3.2h-0.8V47c0-0.4-0.1-0.8-0.3-1.1c-0.3-0.2-0.5-0.3-0.9-0.3c-0.4,0-0.8,0.1-1.2,0.4
	c-0.3,0.3-0.4,0.8-0.4,1.2v2.9L96.5,50.1L96.5,50.1z"/>
<path class="st6" d="M102.4,43.8v-1h1v1H102.4z M102.6,50.1V45h0.8v5.1H102.6z"/>
<path class="st6" d="M108.7,52.3v-3.4h0.1c-0.1,0.4-0.3,0.8-0.7,1c-0.3,0.2-0.8,0.3-1.2,0.3c-0.4,0-0.8-0.1-1.2-0.3
	c-0.3-0.2-0.6-0.5-0.8-0.9c-0.2-0.5-0.3-1-0.3-1.4c0-0.5,0.1-1,0.3-1.4c0.1-0.3,0.5-0.7,0.8-0.9c0.3-0.2,0.8-0.3,1.2-0.3
	c0.4,0,0.8,0.1,1.2,0.3c0.3,0.2,0.5,0.5,0.7,1h-0.1l0.1-1.2h0.8c0,0.2-0.1,0.4-0.1,0.6s0,0.4,0,0.6v6.2L108.7,52.3z M107.2,49.5
	c0.5,0,0.9-0.1,1.2-0.5c0.3-0.4,0.5-1,0.4-1.5c0.1-0.5-0.1-1.1-0.4-1.5c-0.6-0.6-1.6-0.7-2.3-0.1l-0.1,0.1c-0.3,0.4-0.5,1-0.4,1.5
	c-0.1,0.5,0.1,1,0.4,1.5C106.3,49.4,106.7,49.6,107.2,49.5z"/>
<path class="st6" d="M113.1,50.2c-0.5,0-1-0.1-1.4-0.5c-0.3-0.4-0.5-1-0.5-1.5V45h0.8v3.2c0,0.3,0.1,0.8,0.3,1
	c0.2,0.3,0.5,0.3,0.9,0.3c0.4,0,0.8-0.1,1.1-0.4c0.3-0.3,0.4-0.8,0.4-1.2V45h0.8v5.1h-0.8V49h0.1c-0.1,0.3-0.3,0.7-0.7,0.9
	C113.8,50.1,113.5,50.3,113.1,50.2z"/>
<path class="st6" d="M119.4,50.2c-0.7,0.1-1.4-0.2-1.9-0.7c-0.5-0.5-0.8-1.2-0.7-2c0-0.5,0.1-1,0.3-1.4c0.2-0.4,0.5-0.7,0.9-1
	c0.4-0.2,0.8-0.3,1.3-0.3c0.4,0,0.8,0.1,1.2,0.3s0.6,0.5,0.8,0.8c0.2,0.4,0.3,0.8,0.3,1.3v0.3h-4v-0.3h3.4l-0.1,0.1
	c0-0.5-0.1-0.9-0.3-1.3c-0.3-0.3-0.7-0.5-1.1-0.5c-0.5,0-0.9,0.2-1.2,0.5c-0.3,0.4-0.5,1-0.4,1.4v0.1c-0.1,0.5,0.1,1,0.5,1.4
	c0.3,0.3,0.8,0.5,1.3,0.5c0.3,0,0.6-0.1,0.9-0.1c0.3-0.1,0.5-0.3,0.8-0.5l0.3,0.5c-0.3,0.2-0.5,0.4-0.8,0.5
	C120.1,50.2,119.8,50.2,119.4,50.2z"/>
<path d="M127.5,50.2c-0.5,0-0.9-0.1-1.3-0.3c-0.3-0.2-0.7-0.5-0.9-1c-0.2-0.5-0.3-1-0.3-1.4c0-0.5,0.1-1,0.3-1.4
	c0.2-0.4,0.5-0.7,0.9-0.9s0.8-0.3,1.3-0.3c0.3,0,0.7,0.1,1,0.1c0.3,0.1,0.5,0.3,0.8,0.5l-0.3,0.6c-0.2-0.2-0.4-0.3-0.7-0.4
	c-0.2-0.1-0.5-0.1-0.8-0.1c-0.5,0-0.9,0.1-1.2,0.5c-0.3,0.4-0.5,1-0.4,1.4c0,0.5,0.1,1,0.4,1.5c0.3,0.3,0.8,0.5,1.2,0.5
	c0.2,0,0.5-0.1,0.7-0.1c0.3-0.1,0.5-0.3,0.7-0.5l0.3,0.6c-0.2,0.2-0.5,0.4-0.8,0.5C128.2,50.1,127.9,50.2,127.5,50.2z"/>
<path d="M132.4,50.2c-0.4,0-0.8-0.1-1.2-0.3c-0.3-0.2-0.6-0.5-0.8-0.9c-0.2-0.5-0.3-1-0.3-1.4c0-0.5,0.1-1,0.3-1.4
	c0.1-0.4,0.4-0.7,0.8-0.9c0.3-0.2,0.8-0.3,1.2-0.3c0.4,0,0.8,0.1,1.2,0.3c0.3,0.2,0.5,0.5,0.7,1h-0.1l0.1-1.2h0.8
	c0,0.2-0.1,0.4-0.1,0.6s0,0.4,0,0.6v4h-0.8V49h0.1c-0.1,0.4-0.3,0.8-0.7,1C133.2,50.1,132.8,50.3,132.4,50.2z M132.6,49.5
	c0.5,0,0.9-0.1,1.2-0.5c0.3-0.4,0.5-1,0.4-1.5c0.1-0.5-0.1-1.1-0.4-1.5c-0.6-0.6-1.6-0.7-2.3-0.1l-0.1,0.1c-0.3,0.4-0.5,1-0.4,1.5
	c-0.1,0.5,0.1,1,0.4,1.5C131.7,49.4,132.1,49.6,132.6,49.5L132.6,49.5z"/>
<path d="M136.6,50.1v-3.9c0-0.2,0-0.4,0-0.6s0-0.4-0.1-0.6h0.8l0.1,1.2h-0.1c0.1-0.5,0.5-1,1-1.2c0.2-0.1,0.5-0.1,0.8-0.1h0.3
	c0.1,0,0.1,0,0.2,0.1v0.8c-0.1,0-0.2-0.1-0.3-0.1c-0.1,0-0.2,0-0.3,0c-0.5,0-1,0.3-1.3,0.8c-0.1,0.2-0.1,0.5-0.1,0.8v3H136.6z"/>
<path d="M142.5,50.2c-0.7,0.1-1.4-0.2-1.9-0.7c-0.5-0.5-0.8-1.2-0.7-2c0-0.5,0.1-1,0.3-1.4c0.2-0.4,0.5-0.8,0.8-1
	c0.4-0.2,0.8-0.3,1.3-0.3c0.4,0,0.8,0.1,1.2,0.3s0.6,0.5,0.8,0.8c0.2,0.4,0.3,0.8,0.3,1.3v0.3h-4v-0.3h3.4l-0.2,0.1
	c0-0.5-0.1-0.9-0.3-1.3c-0.3-0.3-0.7-0.5-1.1-0.5c-0.5,0-0.9,0.2-1.2,0.5c-0.3,0.4-0.5,1-0.4,1.4v0.1c-0.1,0.5,0.1,1,0.5,1.4
	c0.3,0.3,0.9,0.5,1.4,0.5c0.3,0,0.6-0.1,0.9-0.1s0.5-0.3,0.8-0.5l0.3,0.5c-0.3,0.2-0.5,0.4-0.8,0.5
	C143.3,50.2,142.9,50.2,142.5,50.2z"/>
<path d="M150.8,50.2c-0.7,0.1-1.4-0.2-1.9-0.7c-0.5-0.5-0.8-1.2-0.7-2c0-0.5,0.1-1,0.3-1.4c0.2-0.4,0.5-0.7,0.9-1
	c0.4-0.2,0.8-0.3,1.3-0.3c0.4,0,0.8,0.1,1.2,0.3s0.6,0.5,0.8,0.8c0.2,0.4,0.3,0.8,0.3,1.3v0.3h-4v-0.3h3.4l-0.1,0.1
	c0-0.5-0.1-0.9-0.3-1.3c-0.3-0.3-0.7-0.5-1.1-0.5c-0.5,0-0.9,0.2-1.2,0.5c-0.3,0.4-0.5,1-0.4,1.4v0.1c-0.1,0.5,0.1,1,0.5,1.4
	c0.3,0.3,0.9,0.5,1.4,0.5c0.3,0,0.6-0.1,0.9-0.1c0.3-0.1,0.5-0.3,0.8-0.5l0.3,0.5c-0.3,0.2-0.5,0.4-0.8,0.5
	C151.6,50.2,151.2,50.3,150.8,50.2z"/>
<path d="M153.4,50.1l2.3-2.9v0.4l-2.2-2.7h1l1.7,2.1H156l1.6-2.1h1l-2.1,2.7v-0.4l2.3,2.9h-1l-1.8-2.3h0.3l-1.8,2.3H153.4z"/>
<path d="M159.6,52.3v-6.2c0-0.2,0-0.4,0-0.6c0-0.2-0.1-0.4-0.1-0.6h0.8l0.1,1.2h-0.1c0.1-0.4,0.3-0.8,0.7-1c0.3-0.2,0.8-0.3,1.2-0.3
	c0.4,0,0.8,0.1,1.2,0.3c0.3,0.2,0.6,0.5,0.8,0.9c0.2,0.5,0.3,1,0.3,1.4c0,0.5-0.1,1-0.3,1.4c-0.2,0.4-0.5,0.7-0.8,1
	c-0.3,0.2-0.8,0.3-1.2,0.3c-0.4,0-0.8-0.1-1.2-0.3c-0.3-0.2-0.5-0.5-0.7-1h0.1v3.4L159.6,52.3z M162,49.5c0.5,0,0.9-0.1,1.2-0.5
	c0.3-0.4,0.5-1,0.4-1.5c0.1-0.5-0.1-1.1-0.4-1.5c-0.3-0.3-0.8-0.5-1.2-0.5c-0.5,0-0.9,0.1-1.2,0.5c-0.3,0.4-0.5,1-0.4,1.5
	c-0.1,0.5,0.1,1,0.4,1.5C161.1,49.4,161.6,49.6,162,49.5z"/>
<path d="M168,50.2c-0.7,0.1-1.4-0.2-1.9-0.7c-0.5-0.5-0.8-1.2-0.7-2c0-0.5,0.1-1,0.3-1.4c0.2-0.4,0.5-0.7,0.9-1
	c0.4-0.2,0.8-0.3,1.3-0.3c0.4,0,0.8,0.1,1.2,0.3s0.6,0.5,0.8,0.8c0.2,0.4,0.3,0.8,0.3,1.3v0.3h-4v-0.3h3.4l-0.2,0.1
	c0-0.5-0.1-0.9-0.3-1.3c-0.3-0.3-0.7-0.5-1.1-0.5c-0.5,0-0.9,0.2-1.2,0.5c-0.3,0.4-0.5,1-0.4,1.4v0.1c-0.1,0.5,0.1,1,0.5,1.4
	c0.3,0.3,0.9,0.5,1.4,0.5c0.3,0,0.6-0.1,0.9-0.1c0.3-0.1,0.5-0.3,0.8-0.5l0.3,0.5c-0.3,0.2-0.5,0.4-0.9,0.5
	C168.8,50.2,168.4,50.3,168,50.2z"/>
<path d="M171.3,50.1v-3.9c0-0.2,0-0.4,0-0.6s0-0.4-0.1-0.6h0.8l0.1,1.2H172c0.1-0.3,0.2-0.5,0.3-0.8c0.1-0.2,0.3-0.3,0.6-0.5
	c0.2-0.1,0.5-0.1,0.8-0.1h0.3c0.1,0,0.1,0,0.2,0.1v0.8c-0.1,0-0.2-0.1-0.3-0.1c-0.1,0-0.2,0-0.3,0c-0.3,0-0.5,0.1-0.8,0.2
	c-0.2,0.1-0.4,0.3-0.5,0.5c-0.1,0.2-0.2,0.5-0.1,0.7v3L171.3,50.1z"/>
<path d="M175,43.8v-1h1v1H175z M175.1,50.1V45h0.8v5.1H175.1z"/>
<path d="M179.8,50.2c-0.7,0.1-1.4-0.2-1.9-0.7c-0.5-0.5-0.8-1.2-0.7-2c0-0.5,0.1-1,0.3-1.4c0.2-0.4,0.5-0.7,0.9-1
	c0.4-0.2,0.8-0.3,1.3-0.3c0.4,0,0.8,0.1,1.2,0.3c0.3,0.2,0.5,0.5,0.7,0.8c0.2,0.4,0.3,0.8,0.3,1.3v0.3h-4v-0.3h3.4l-0.1,0.1
	c0-0.5-0.1-0.9-0.3-1.3c-0.3-0.3-0.7-0.5-1.1-0.5c-0.5,0-0.9,0.2-1.2,0.5c-0.3,0.4-0.5,1-0.4,1.4v0.1c-0.1,0.5,0.1,1,0.5,1.4
	c0.3,0.3,0.9,0.5,1.4,0.5c0.3,0,0.6-0.1,0.9-0.1s0.5-0.3,0.8-0.5l0.3,0.5c-0.3,0.2-0.5,0.4-0.8,0.5
	C180.6,50.1,180.2,50.2,179.8,50.2z"/>
<path d="M183.1,50.1v-4c0-0.2,0-0.4,0-0.6c0-0.2,0-0.4-0.1-0.6h0.8l0.1,1.2h-0.1c0.1-0.3,0.4-0.7,0.7-0.9c0.3-0.2,0.8-0.3,1.2-0.3
	c0.5-0.1,1,0.1,1.4,0.5c0.3,0.4,0.5,1,0.5,1.5v3.2h-0.8v-3.2c0-0.4-0.1-0.8-0.3-1.1c-0.3-0.2-0.5-0.3-0.9-0.3
	c-0.4,0-0.8,0.1-1.2,0.4c-0.3,0.3-0.4,0.8-0.4,1.2V50h-0.8V50.1z"/>
<path d="M191.3,50.2c-0.5,0-0.9-0.1-1.3-0.3c-0.4-0.2-0.7-0.5-0.9-1c-0.2-0.5-0.3-1-0.3-1.4c0-0.5,0.1-1,0.3-1.4
	c0.2-0.4,0.5-0.7,0.9-0.9c0.4-0.2,0.8-0.3,1.3-0.3c0.3,0,0.7,0.1,1,0.1c0.3,0.1,0.5,0.3,0.8,0.5l-0.3,0.6c-0.2-0.2-0.4-0.3-0.7-0.4
	c-0.2-0.1-0.5-0.1-0.7-0.1c-0.5,0-1,0.1-1.2,0.5c-0.3,0.4-0.5,1-0.4,1.4c-0.1,0.5,0.1,1,0.4,1.5c0.3,0.3,0.8,0.5,1.2,0.5
	c0.2,0,0.5-0.1,0.7-0.1c0.3-0.1,0.5-0.3,0.7-0.5l0.3,0.6c-0.2,0.2-0.5,0.4-0.8,0.5C192,50.1,191.6,50.2,191.3,50.2z"/>
<path d="M196.5,50.2c-0.7,0.1-1.4-0.2-1.9-0.7c-0.5-0.5-0.8-1.2-0.7-2c0-0.5,0.1-1,0.3-1.4c0.2-0.4,0.5-0.7,0.9-1
	c0.4-0.2,0.8-0.3,1.3-0.3c0.4,0,0.8,0.1,1.2,0.3s0.6,0.5,0.8,0.8c0.2,0.4,0.3,0.8,0.3,1.3v0.3h-4v-0.3h3.4l-0.2,0.1
	c0-0.5-0.1-0.9-0.3-1.3c-0.3-0.3-0.7-0.5-1.1-0.5c-0.5,0-0.9,0.2-1.2,0.5c-0.3,0.4-0.5,1-0.4,1.4v0.1c-0.1,0.5,0.1,1,0.5,1.4
	c0.3,0.3,0.9,0.5,1.4,0.5c0.3,0,0.6-0.1,0.9-0.1c0.3-0.1,0.5-0.3,0.8-0.5l0.3,0.5c-0.3,0.2-0.5,0.4-0.9,0.5
	C197.2,50.2,196.8,50.3,196.5,50.2z"/>
</svg>
