<svg xmlns="http://www.w3.org/2000/svg" width="240" height="60" viewBox="0 0 240 60">
  <defs>
    <style>
      .red-color { fill: #e30613; }
      .dark-gray { fill: #333333; }
    </style>
  </defs>
  <g>
    <!-- Hands icon - simplified representation of the logo -->
    <path class="red-color" d="M42,20 C48,15 54,18 60,25 C66,32 72,32 78,25 L82,29 C74,38 64,38 56,30 C48,22 44,22 40,26 Z" />
    <path class="dark-gray" d="M36,28 C42,33 46,33 50,28 L46,24 C44,26 42,26 38,23 C34,20 30,20 26,23 L30,27 C32,25 34,26 36,28 Z" />
    
    <!-- Text -->
    <text x="90" y="30" font-family="Arial, sans-serif" font-size="16" font-weight="700" class="red-color">SUPER</text>
    <text x="90" y="48" font-family="Arial, sans-serif" font-size="16" font-weight="700" class="dark-gray">HEALTHCARE</text>
  </g>
</svg>